<svg xmlns="http://www.w3.org/2000/svg" width="131" height="32" viewBox="0 0 131 32" fill="none"><path d="M79.3875 19.7558L80.4577 12.3115L85.8588 16.2008L79.3875 19.7558Z" fill="#03A8D3"></path><path d="M82.985 7.00774C84.1616 6.99038 85.3328 7.16998 86.4502 7.53912C87.4135 7.85868 88.2985 8.37811 89.0472 9.0634C89.7607 9.73095 90.3178 10.5479 90.6788 11.4559C91.0677 12.4488 91.2601 13.5079 91.2451 14.5743C91.2561 15.9655 91.0065 17.3464 90.5091 18.6457C90.0413 19.8717 89.3397 20.9952 88.4435 21.9537C87.548 22.904 86.4671 23.6605 85.2677 24.1765C83.9821 24.7282 82.5951 25.0044 81.1963 24.9873C80.0107 25.0044 78.8305 24.8249 77.7036 24.4559C76.7331 24.1359 75.84 23.6167 75.0817 22.9316C74.3628 22.2667 73.8019 21.4492 73.4401 20.5392C73.0503 19.5464 72.8571 18.4873 72.8713 17.4208C72.8608 16.0285 73.1147 14.6469 73.6198 13.3494C74.0981 12.1185 74.8125 10.993 75.7228 10.0364C76.6303 9.08881 77.7187 8.33297 78.9236 7.81354C80.2065 7.26493 81.5898 6.99046 82.985 7.00774ZM81.4133 21.3674C82.2392 21.3814 83.0561 21.1939 83.7933 20.8211C84.4814 20.4692 85.0868 19.9752 85.5695 19.3717C86.0617 18.7515 86.4378 18.0475 86.6797 17.2935C86.9373 16.518 87.0679 15.7059 87.0664 14.8886C87.0713 14.3153 86.9733 13.7458 86.777 13.2072C86.5941 12.7007 86.3107 12.2366 85.9438 11.8425C85.5584 11.4406 85.0902 11.1273 84.5717 10.9245C83.9798 10.6897 83.3472 10.5744 82.7106 10.5852C81.8916 10.5729 81.0824 10.7641 80.3555 11.1415C79.6729 11.5049 79.0705 12.0021 78.5843 12.6034C78.0868 13.2204 77.7025 13.9206 77.4492 14.6716C77.1852 15.4415 77.0511 16.2501 77.0525 17.064C77.046 17.6362 77.1423 18.2049 77.3369 18.743C77.5201 19.2528 77.8082 19.7186 78.1826 20.1101C78.5688 20.5075 79.0336 20.8202 79.5472 21.0282C80.1408 21.2634 80.775 21.3787 81.4133 21.3674Z" fill="black"></path><path d="M105.899 21.0406C105.516 21.843 104.979 22.562 104.318 23.1562C103.635 23.753 102.844 24.2122 101.987 24.5083C100.983 24.8469 99.9285 25.0106 98.869 24.9923C97.926 25.0043 96.9863 24.8783 96.0799 24.6181C95.311 24.3991 94.59 24.0377 93.9544 23.5528C93.3767 23.1085 92.9132 22.533 92.6022 21.8739C92.2803 21.1777 92.1191 20.418 92.1307 19.6511C92.1307 19.424 92.1307 19.182 92.1656 18.9251C92.2006 18.6681 92.218 18.4261 92.2505 18.1767L94.134 7.44929H98.1256L96.2969 17.8124C96.2643 17.977 96.2443 18.1438 96.2371 18.3114C96.2371 18.4885 96.2371 18.6482 96.2371 18.7929C96.2352 19.1375 96.2882 19.4803 96.3942 19.8082C96.4965 20.127 96.6667 20.4198 96.8932 20.6664C97.1392 20.9327 97.4455 21.1363 97.7863 21.2602C98.2122 21.4145 98.6631 21.4881 99.116 21.4772C99.6932 21.4969 100.267 21.3851 100.795 21.1504C101.214 20.951 101.584 20.6623 101.88 20.3047C102.162 19.9595 102.379 19.5666 102.521 19.1446C102.664 18.7223 102.778 18.2905 102.861 17.8523L104.719 7.43433H108.681L106.775 18.2715C106.614 19.231 106.319 20.1632 105.899 21.0406Z" fill="black"></path><path d="M17.5055 10.5378C17.1713 10.0597 16.7228 9.67289 16.2007 9.41268C15.6242 9.12095 14.9857 8.97288 14.3396 8.98109C13.9184 8.98248 13.4991 9.03867 13.0923 9.14824C12.6688 9.25975 12.2679 9.44375 11.9073 9.69209C11.5448 9.94318 11.2402 10.269 11.0142 10.6476C10.7715 11.0651 10.6497 11.5419 10.6624 12.0247C10.6547 12.3591 10.7257 12.6906 10.8695 12.9926C11.0084 13.2718 11.2028 13.5196 11.4408 13.7211C11.7056 13.9463 11.9982 14.1366 12.3114 14.2874C12.6717 14.4667 13.0424 14.6241 13.4216 14.7589C14.0202 14.9738 14.6036 15.2288 15.1679 15.5223C15.6858 15.7901 16.1657 16.1256 16.5949 16.5202C16.997 16.8895 17.3247 17.3324 17.5603 17.8249C17.803 18.3596 17.9224 18.9419 17.9096 19.5288C17.9182 20.2816 17.7659 21.0275 17.4631 21.7167C17.1717 22.3819 16.7363 22.9741 16.1882 23.4506C15.5948 23.9553 14.9095 24.3407 14.17 24.5857C12.7868 25.0373 11.3103 25.1233 9.88404 24.8352C9.34819 24.7242 8.82556 24.5569 8.32483 24.3362C7.83527 24.1249 7.3763 23.8489 6.9602 23.5154C6.55119 23.1882 6.20323 22.7913 5.93237 22.3429L7.91319 21.0132C8.2659 21.6064 8.77059 22.0948 9.37511 22.4277C10.0587 22.8159 10.8344 23.0124 11.6204 22.9965C12.0995 22.9968 12.576 22.9271 13.0349 22.7895C13.474 22.6638 13.8866 22.4593 14.2523 22.1857C14.6066 21.9185 14.8993 21.5781 15.1105 21.1878C15.336 20.76 15.4485 20.2817 15.4373 19.7983C15.4464 19.4026 15.3545 19.011 15.1704 18.6607C14.9889 18.3328 14.7428 18.045 14.4469 17.815C14.1187 17.5608 13.762 17.3457 13.3842 17.1738C12.98 16.9892 12.5534 16.8162 12.1044 16.6549C11.6093 16.4645 11.1254 16.2463 10.6549 16.0013C10.2044 15.7728 9.78931 15.4804 9.42251 15.1331C9.06426 14.7889 8.77694 14.3779 8.5768 13.9232C8.35548 13.3961 8.24835 12.8281 8.26246 12.2567C8.25175 11.5086 8.41218 10.7679 8.73147 10.0913C9.0392 9.44631 9.48964 8.87984 10.0487 8.43475C10.6444 7.96539 11.3207 7.60863 12.0445 7.38197C12.8572 7.12659 13.7049 7.00032 14.5567 7.00776C15.5155 6.99963 16.4658 7.189 17.3483 7.56408C18.1499 7.8868 18.8424 8.43216 19.3441 9.13577L17.5055 10.5378Z" fill="#03A8D3"></path><path d="M30.5157 24.5557H28.021L38.2369 7.44434H40.3849L44.7382 24.5557H42.2435L41.1733 20.3521H33.0254L30.5157 24.5557ZM34.2578 18.2715H40.6643L38.7559 10.7648L34.2578 18.2715Z" fill="#03A8D3"></path><path d="M58.1274 8.54195C57.5889 8.1628 56.9838 7.88857 56.3437 7.73365C55.5939 7.54216 54.8223 7.44908 54.0485 7.45674H48.1485L45.761 24.5681H48.0886L49.1538 16.9317H52.4668L55.8821 24.5557H58.539L54.8842 16.6773C55.5415 16.5741 56.1829 16.3871 56.7927 16.121C57.3477 15.8812 57.8548 15.5432 58.2896 15.1231C58.7152 14.7062 59.0544 14.2094 59.2875 13.6611C59.5399 13.0397 59.663 12.3734 59.6492 11.7028C59.6633 11.0713 59.5274 10.4454 59.2525 9.87663C58.987 9.34988 58.6016 8.89275 58.1274 8.54195ZM56.6879 13.4491C56.4605 13.8166 56.1461 14.1225 55.7724 14.3397C55.352 14.5806 54.8913 14.7429 54.4127 14.8187C53.8601 14.9161 53.2999 14.9636 52.7388 14.9609H49.4382L50.1867 9.61468H53.577C54.6398 9.61468 55.4797 9.80179 56.0967 10.176C56.7129 10.5527 57.0222 11.1739 57.0222 12.052C57.0388 12.5406 56.9196 13.0242 56.678 13.4491H56.6879Z" fill="#03A8D3"></path><path d="M65.9209 9.61725H60.3926L60.7069 7.44434H66.2627H68.5903H74.0937L73.7793 9.61725H68.2485L66.1629 24.5582H63.8353L65.9209 9.61725Z" fill="#03A8D3"></path><path d="M25.7805 9.61725H20.2522L20.5665 7.44434H26.1223H28.4474H33.9533L33.6365 9.61725H28.1081L26.0225 24.5582H23.6949L25.7805 9.61725Z" fill="#03A8D3"></path><path d="M114.763 10.7773H109.753L110.225 7.44434H124.108L123.639 10.7773H118.63L116.646 24.5582H112.78L114.763 10.7773Z" fill="black"></path></svg>